# Alias OBJ Model File
# Exported from SketchUp, (c) 2000-2012 Trimble Navigation Limited
# File units = meters

mtllib cenario7.mtl

g Mesh1 Group2 Group1 Model

usemtl _10
v 9.5 -0.065 -18.5917
vt -3 1.11022e-016
vn 1 1.91806e-014 2.21092e-015
v 9.5 0.838301 -11.4083
vt -2 -1
v 9.5 -0.065 -11.4083
vt -2 1.11022e-016
f 1/1/1 2/2/1 3/3/1

v 9.5 0.838301 -18.5917
vt -3 -1
f 2/2/1 1/1/1 4/4/1

g Mesh2 Group3 Group1 Model

v 20.5 -0.065 -11.4083
vn -1 1.91806e-014 1.26655e-012
v 20.5 0.838301 -18.5917
v 20.5 -0.065 -18.5917
f 5/1/2 6/2/2 7/3/2

v 20.5 0.838301 -11.4083
f 6/2/2 5/1/2 8/4/2

g Mesh3 Group1 Model

usemtl FrontColor
v 0 10.025 -16
vt 233.858 -393.701
vn -1 0 -0
v 0 10.0249 -15.9999
vt 233.854 -393.697
v 0 10.025 -15.9999
vt 233.854 -393.701
f 9/5/3 10/6/3 11/7/3

v 0 10.0249 -16
vt 233.858 -393.697
f 10/6/3 9/5/3 12/8/3

g Mesh4 Group1 Model

v 30 11.0249 -13.0001
vt -116.933 -433.067
vn 1 0 -0
v 30 11.025 -13
vt -116.929 -433.071
v 30 11.0249 -13
vt -116.929 -433.067
f 13/9/4 14/10/4 15/11/4

v 30 11.025 -13.0001
vt -116.933 -433.071
f 14/10/4 13/9/4 16/12/4

g Mesh5 Group1 Model

v 14.0001 9.0249 -1.44382e-015
vt -237.791 -354.327
vn 0 0 -1
v 14 9.025 -1.44382e-015
vt -237.795 -354.331
v 14.0001 9.025 -1.44382e-015
vt -237.791 -354.331
f 17/13/5 18/14/5 19/15/5

v 14 9.0249 -1.44382e-015
vt -237.795 -354.327
f 18/14/5 17/13/5 20/16/5

g Mesh6 Group1 Model

v 15.9999 10.0249 -30
vt 159.846 -393.697
vn 0 0 1
v 16 10.025 -30
vt 159.843 -393.701
v 15.9999 10.025 -30
vt 159.846 -393.701
f 21/17/6 22/18/6 23/19/6

v 16 10.0249 -30
vt 159.843 -393.697
f 22/18/6 21/17/6 24/20/6

g Mesh7 Group1 Model

v 10.9999 20.025 -29
vt 354.728 740.551
vn 0 -1 -0
v 11 20.025 -29.0001
vt 354.724 740.555
v 11 20.025 -29
vt 354.724 740.551
f 25/21/7 26/22/7 27/23/7

v 10.9999 20.025 -29.0001
vt 354.728 740.555
f 26/22/7 25/21/7 28/24/7

g Mesh8 Group1 Model

v 18.1998 0 -20.3999
vt 74.1023 405.35
v 18.1999 0 -20.4
vt 74.0984 405.354
v 18.1999 0 -20.3999
vt 74.0984 405.35
f 29/25/7 30/26/7 31/27/7

v 18.1998 0 -20.4
vt 74.1023 405.354
f 30/26/7 29/25/7 32/28/7

